<svg width="481" height="49" viewBox="0 0 481 49" fill="none" xmlns="http://www.w3.org/2000/svg">
<path d="M56.9578 41.3184C51.9968 41.3184 47.9294 39.5732 44.7556 36.0723C41.5818 32.5818 40 28.1404 40 22.7585C40 17.3452 41.5407 12.8619 44.6323 9.31925C47.724 5.77657 51.8119 4 56.9065 4C61.1177 4 64.4867 5.12864 67.0339 7.38593C69.5812 9.64322 71.05 12.5484 71.4506 16.0911H64.3531C64.0245 14.2518 63.213 12.7992 61.9086 11.7228C60.6144 10.6569 58.9402 10.1135 56.9065 10.1135C53.784 10.1135 51.4011 11.2839 49.7577 13.6248C48.1143 15.9657 47.2926 19.0068 47.2926 22.7585C47.2926 26.4684 48.1759 29.499 49.9323 31.8399C51.6887 34.1808 54.0305 35.3512 56.9578 35.3512C59.0326 35.3512 60.7582 34.7764 62.1345 33.6164C63.5109 32.4669 64.3223 30.9307 64.5483 29.0287H71.5533C71.3581 32.4042 70.0537 35.2362 67.6605 37.504C64.99 40.0539 61.4258 41.3184 56.9578 41.3184Z" fill="#071E4A"/>
<path d="M74.7991 40.565V4.69922H81.5062V40.565H74.7991Z" fill="#071E4A"/>
<path d="M85.9434 10.8232V4.69922H92.6505V10.8232H85.9434ZM85.9434 40.565V14.8361H92.6505V40.565H85.9434Z" fill="#071E4A"/>
<path d="M96.9849 40.5677V14.8388H103.445V18.2979H103.589C105.202 15.5181 107.646 14.1387 110.933 14.1387C112.515 14.1387 113.912 14.5462 115.144 15.3718C116.377 16.187 117.301 17.2842 117.928 18.6532H118.031C119.869 15.6435 122.396 14.1387 125.621 14.1387C128.251 14.1387 130.295 14.9538 131.763 16.5736C133.222 18.1934 133.961 20.4298 133.961 23.2723V40.5782H127.254V24.4219C127.254 21.4749 125.96 20.0118 123.361 20.0118C121.944 20.0118 120.835 20.5239 120.034 21.5376C119.232 22.5512 118.822 23.9202 118.822 25.6237V40.5677H112.125V24.4219C112.125 21.4749 110.831 20.0118 108.232 20.0118C106.886 20.0118 105.787 20.5239 104.955 21.5376C104.123 22.5512 103.702 23.9202 103.702 25.6237V40.5677H96.9849Z" fill="#071E4A"/>
<path d="M154.031 40.5669C153.703 40.128 153.436 39.177 153.241 37.7035H153.138C152.419 38.8113 151.494 39.6578 150.375 40.2639C149.255 40.87 147.694 41.1626 145.691 41.1626C143.031 41.1626 140.894 40.4729 139.282 39.1039C137.669 37.7349 136.868 35.7911 136.868 33.283C136.868 30.6704 137.751 28.758 139.528 27.5353C141.305 26.3126 143.801 25.4661 147.026 25.0063C149.389 24.6719 151.001 24.327 151.854 23.9822C152.706 23.6269 153.138 22.9998 153.138 22.1011C153.138 21.1606 152.778 20.4186 152.049 19.8647C151.33 19.3108 150.272 19.0391 148.896 19.0391C145.835 19.0391 144.212 20.2409 144.017 22.655H138.049C138.152 20.22 139.118 18.1926 140.956 16.5833C142.795 14.9739 145.455 14.1797 148.947 14.1797C156.045 14.1797 159.598 17.3357 159.598 23.6582V36.763C159.598 38.7068 159.896 39.8877 160.482 40.3266V40.5774H154.031V40.5669ZM147.324 36.4077C149.163 36.4077 150.621 35.927 151.69 34.9551C152.758 33.9832 153.292 32.8337 153.292 31.496V27.6294C152.573 28.0683 151.012 28.5699 148.608 29.1342C146.698 29.5731 145.352 30.0643 144.561 30.6182C143.77 31.172 143.38 32.0185 143.38 33.1472C143.38 35.3208 144.695 36.4077 147.324 36.4077Z" fill="#071E4A"/>
<path d="M161.868 19.353V14.8384H165.371V6.8125H171.924V14.8384H176.258V19.353H171.924V33.0012C171.924 34.7046 172.766 35.5615 174.44 35.5615L176.413 35.5093V40.5255C175.396 40.5882 173.999 40.63 172.222 40.63C170.281 40.63 168.658 40.1493 167.343 39.1983C166.028 38.2473 165.371 36.6693 165.371 34.4538V19.353H161.868Z" fill="#071E4A"/>
<path d="M191.347 41.3202C187.269 41.3202 184.064 40.0452 181.733 37.4849C179.401 34.9245 178.23 31.6535 178.23 27.6824C178.23 23.8366 179.401 20.6179 181.733 18.0262C184.064 15.4345 187.053 14.1387 190.71 14.1387C194.685 14.1387 197.756 15.539 199.933 18.3502C202.101 21.1613 203.189 24.9235 203.189 29.6366H184.845C185.102 31.6744 185.78 33.2525 186.868 34.3811C187.957 35.4993 189.436 36.0636 191.306 36.0636C193.771 36.0636 195.393 35.0081 196.184 32.9076H202.789C202.296 35.3112 201.043 37.3177 199.04 38.927C197.037 40.5364 194.469 41.3202 191.347 41.3202ZM190.813 19.4057C187.557 19.4057 185.605 21.2449 184.948 24.9235H196.184C196.082 23.2828 195.548 21.9556 194.562 20.9314C193.565 19.9177 192.322 19.4057 190.813 19.4057Z" fill="#071E4A"/>
<path d="M215.115 40.565V4.69922H230.593C234.599 4.69922 237.681 5.81741 239.817 8.06425C241.923 10.2693 242.97 12.9968 242.97 16.2365C242.97 19.6433 241.923 22.3917 239.817 24.4609C237.711 26.5301 234.836 27.5751 231.189 27.5751H222.51V40.565H215.115V40.565ZM222.51 11.0217V21.6602H229.905C231.744 21.6602 233.161 21.1795 234.147 20.2285C235.133 19.2775 235.626 17.9608 235.626 16.2887C235.626 14.6166 235.133 13.3208 234.147 12.4012C233.161 11.4815 231.785 11.0217 230.008 11.0217H222.51Z" fill="#071E4A"/>
<path d="M266.728 37.4294C264.262 40.0211 261.089 41.3169 257.216 41.3169C253.334 41.3169 250.17 40.0211 247.705 37.4294C245.24 34.8377 244.008 31.5981 244.008 27.721C244.008 23.8439 245.24 20.6042 247.705 18.0125C250.17 15.4208 253.344 14.125 257.216 14.125C261.099 14.125 264.262 15.4208 266.728 18.0125C269.193 20.6042 270.425 23.8439 270.425 27.721C270.425 31.5981 269.193 34.8481 266.728 37.4294ZM257.216 36.1022C259.219 36.1022 260.791 35.3393 261.921 33.824C263.05 32.2982 263.626 30.2709 263.626 27.7314C263.626 25.192 263.061 23.1541 261.921 21.6075C260.791 20.0713 259.219 19.2979 257.216 19.2979C255.183 19.2979 253.601 20.0608 252.481 21.5761C251.362 23.1019 250.807 25.1502 250.807 27.721C250.807 30.2604 251.362 32.2982 252.481 33.8136C253.601 35.3393 255.183 36.1022 257.216 36.1022Z" fill="#071E4A"/>
<path d="M273.63 40.565V4.69922H280.337V40.565H273.63Z" fill="#071E4A"/>
<path d="M284.774 10.8232V4.69922H291.481V10.8232H284.774ZM284.774 40.565V14.8361H291.481V40.565H284.774Z" fill="#071E4A"/>
<path d="M307.556 41.3169C303.642 41.3169 300.51 40.0315 298.137 37.4503C295.775 34.8795 294.583 31.6294 294.583 27.721C294.583 23.8125 295.744 20.5624 298.055 17.9916C300.376 15.4209 303.417 14.125 307.196 14.125C310.38 14.125 312.979 14.9819 314.982 16.6853C316.985 18.3888 318.217 20.6774 318.68 23.5617H312.127C311.901 22.3913 311.366 21.4403 310.545 20.6983C309.723 19.9668 308.706 19.5906 307.484 19.5906C305.512 19.5906 304.002 20.3116 302.944 21.7433C301.886 23.175 301.362 25.1711 301.362 27.7105C301.362 30.2186 301.876 32.2042 302.893 33.6568C303.91 35.1094 305.409 35.8409 307.381 35.8409C310.309 35.8409 312.003 34.3883 312.455 31.4727H318.916C318.69 34.3152 317.55 36.6665 315.516 38.5162C313.482 40.366 310.843 41.3169 307.556 41.3169Z" fill="#071E4A"/>
<path d="M322.151 49.0002V43.6287H324.514C327.01 43.6287 328.263 42.4583 328.263 40.1174C328.263 38.9783 327.626 36.6583 326.342 33.147L319.542 14.8379H326.589L330.338 26.4274L331.96 32.0497H332.063C332.525 29.876 333.018 28.0054 333.542 26.4274L337.096 14.8379H343.855L335.011 41.2251C334.025 44.1722 332.916 46.1995 331.683 47.3177C330.451 48.4359 328.581 49.0002 326.085 49.0002H322.151Z" fill="#071E4A"/>
<path d="M354.937 40.565V4.69922H371.104C374.493 4.69922 377.226 5.61885 379.311 7.45812C381.396 9.29739 382.443 11.701 382.443 14.6794C382.443 19.2566 380.286 22.1514 375.983 23.3532V23.4995C377.657 24.0011 378.92 24.7953 379.752 25.8822C380.595 26.969 381.118 28.5784 381.355 30.7207C381.416 31.5254 381.498 32.4659 381.581 33.5528C381.663 34.6396 381.724 35.4965 381.776 36.134C381.827 36.7715 381.889 37.409 381.971 38.036C382.053 38.6735 382.166 39.1646 382.32 39.52C382.464 39.8753 382.659 40.0947 382.885 40.1992V40.5545H376.034C375.901 40.4918 375.788 40.3664 375.685 40.1783C375.582 39.9902 375.5 39.7394 375.438 39.405C375.377 39.0706 375.315 38.7257 375.264 38.3809C375.212 38.036 375.161 37.5762 375.12 37.0223C375.069 36.4684 375.028 35.9877 374.997 35.5697C374.966 35.1517 374.925 34.5978 374.873 33.9185C374.822 33.2288 374.781 32.6854 374.75 32.2883C374.452 28.2126 372.152 26.1643 367.848 26.1643H362.076V40.565H354.937V40.565ZM362.086 10.5723V20.5525H369.676C371.546 20.5525 372.984 20.1031 373.99 19.1939C374.997 18.2952 375.49 17.1038 375.49 15.6303C375.49 14.1255 375.017 12.9028 374.062 11.9727C373.107 11.0322 371.71 10.5723 369.871 10.5723H362.086Z" fill="#071E4A"/>
<path d="M402.411 40.5669C402.082 40.128 401.815 39.177 401.62 37.7035H401.517C400.798 38.8113 399.874 39.6578 398.754 40.2639C397.634 40.87 396.073 41.1626 394.07 41.1626C391.41 41.1626 389.274 40.4729 387.661 39.1039C386.048 37.7349 385.247 35.7911 385.247 33.283C385.247 30.6704 386.131 28.758 387.908 27.5353C389.684 26.3126 392.18 25.4661 395.406 25.0063C397.768 24.6719 399.381 24.327 400.233 23.9822C401.086 23.6269 401.517 22.9998 401.517 22.1011C401.517 21.1606 401.157 20.4186 400.428 19.8647C399.709 19.3108 398.651 19.0391 397.275 19.0391C394.214 19.0391 392.591 20.2409 392.396 22.655H386.429C386.531 20.22 387.497 18.1926 389.335 16.5833C391.174 14.9739 393.834 14.1797 397.326 14.1797C404.424 14.1797 407.978 17.3357 407.978 23.6582V36.763C407.978 38.7068 408.275 39.8877 408.861 40.3266V40.5774H402.411V40.5669ZM395.703 36.4077C397.542 36.4077 399.001 35.927 400.069 34.9551C401.137 33.9832 401.671 32.8337 401.671 31.496V27.6294C400.952 28.0683 399.391 28.5699 396.987 29.1342C395.077 29.5731 393.731 30.0643 392.94 30.6182C392.15 31.172 391.759 32.0185 391.759 33.1472C391.759 35.3208 393.074 36.4077 395.703 36.4077Z" fill="#071E4A"/>
<path d="M421.69 41.3174C418.506 41.3174 415.918 40.0843 413.945 37.6284C411.973 35.1726 410.987 31.8703 410.987 27.7214C410.987 23.7085 411.994 20.4375 414.017 17.919C416.041 15.4004 418.629 14.1359 421.782 14.1359C424.936 14.1359 427.319 15.4109 428.931 17.9503H429.075V4.69922H435.782V40.565H429.322V37.2H429.219C427.586 39.9484 425.069 41.3174 421.69 41.3174ZM423.169 35.6011C425.141 35.6011 426.641 34.9113 427.678 33.5423C428.716 32.1733 429.229 30.2818 429.229 27.8782C429.229 22.3917 427.278 19.6537 423.364 19.6537C421.556 19.6537 420.18 20.3957 419.225 21.8588C418.27 23.3323 417.797 25.2865 417.797 27.7319C417.797 30.24 418.27 32.1838 419.204 33.5528C420.139 34.9218 421.454 35.6011 423.169 35.6011Z" fill="#071E4A"/>
<path d="M456.047 40.5669C455.718 40.128 455.451 39.177 455.256 37.7035H455.153C454.434 38.8113 453.51 39.6578 452.39 40.2639C451.271 40.87 449.71 41.1626 447.707 41.1626C445.047 41.1626 442.91 40.4729 441.298 39.1039C439.685 37.7349 438.884 35.7911 438.884 33.283C438.884 30.6704 439.767 28.758 441.544 27.5353C443.321 26.3126 445.817 25.4661 449.042 25.0063C451.404 24.6719 453.017 24.327 453.87 23.9822C454.722 23.6373 455.153 22.9998 455.153 22.1011C455.153 21.1606 454.794 20.4186 454.065 19.8647C453.346 19.3108 452.288 19.0391 450.911 19.0391C447.851 19.0391 446.228 20.2409 446.033 22.655H440.065C440.168 20.22 441.133 18.1926 442.972 16.5833C444.81 14.9739 447.471 14.1797 450.963 14.1797C458.06 14.1797 461.614 17.3357 461.614 23.6582V36.763C461.614 38.7068 461.912 39.8877 462.497 40.3266V40.5774H456.047V40.5669ZM449.35 36.4077C451.189 36.4077 452.647 35.927 453.715 34.9551C454.784 33.9832 455.318 32.8337 455.318 31.496V27.6294C454.589 28.0683 453.038 28.5699 450.634 29.1342C448.724 29.5731 447.378 30.0643 446.587 30.6182C445.796 31.172 445.406 32.0185 445.406 33.1472C445.406 35.3208 446.71 36.4077 449.35 36.4077Z" fill="#071E4A"/>
<path d="M472.317 14.8395V18.9569H472.46C473.251 17.4521 474.124 16.3443 475.069 15.6233C476.025 14.9022 477.226 14.5469 478.664 14.5469C479.352 14.5469 479.876 14.6096 480.246 14.7454V20.7126H480.102C477.832 20.4827 476.014 20.9843 474.628 22.2175C473.251 23.4506 472.553 25.3944 472.553 28.0383V40.5788H465.846V14.8395H472.317Z" fill="#071E4A"/>
<path fill-rule="evenodd" clip-rule="evenodd" d="M0 22.4982C0 34.9055 10.0856 45 22.4784 45V42.4746C11.475 42.4746 2.5196 33.5113 2.5196 22.4982C2.5196 11.4851 11.475 2.52182 22.4784 2.52182V0C10.0856 0 0 10.0909 0 22.4982ZM22.4784 39.549C13.0839 39.549 5.44233 31.9007 5.44233 22.4979C5.44233 13.0952 13.0839 5.44688 22.4784 5.44688V7.96869C14.4733 7.96869 7.96193 14.4858 7.96193 22.4979C7.96193 30.5101 14.4733 37.0272 22.4784 37.0272V39.549ZM10.701 22.5016C10.701 29.0006 15.985 34.2892 22.4784 34.2892V31.7674C17.3744 31.7674 13.2206 27.61 13.2206 22.5016C13.2206 17.3931 17.3744 13.2357 22.4784 13.2357V10.7139C15.985 10.7139 10.701 16.0025 10.701 22.5016ZM16.3342 22.4985C16.3342 25.8885 19.0913 28.6481 22.4784 28.6481V26.1263C20.4807 26.1263 18.8538 24.4979 18.8538 22.4985C18.8538 20.499 20.4807 18.8706 22.4784 18.8706V16.3488C19.0913 16.3488 16.3342 19.1084 16.3342 22.4985Z" fill="url(#paint0_angular)"/>
<defs>
<radialGradient id="paint0_angular" cx="0" cy="0" r="1" gradientUnits="userSpaceOnUse" gradientTransform="translate(-6.11971 6.35515) rotate(41.0278) scale(48.0487 24.0016)">
<stop stop-color="#246DDF"/>
<stop offset="1" stop-color="#03CBFF"/>
</radialGradient>
</defs>
</svg>
