<svg id="Layer_1" fill="white" enable-background="new 0 0 496 496" height="512" viewBox="0 0 496 496" width="512" xmlns="http://www.w3.org/2000/svg"><path d="m412 164c0-90.43-73.57-164-164-164s-164 73.57-164 164c0 85.032 65.051 155.149 148 163.218v22.826c-13.38-10.068-30.004-16.044-48-16.044h-30c-8.836 0-16 7.164-16 16v30c0 44.112 35.888 80 80 80h14v20c0 8.836 7.164 16 16 16 8.837 0 16-7.164 16-16v-20h14c44.112 0 80-35.888 80-80v-30c0-8.836-7.163-16-16-16h-30c-17.996 0-34.62 5.976-48 16.044v-22.826c82.949-8.069 148-78.186 148-163.218zm-164 108.453c-8.836 0-16-7.164-16-16v-14.899c-18.577-6.249-32-23.818-32-44.474 0-8.836 7.164-16 16-16s16 7.164 16 16c0 8.227 6.693 14.92 14.92 14.92h2.159c8.228 0 14.921-6.693 14.921-14.92 0-6.363-4.041-12.031-10.057-14.105l-22.318-7.696c-42.146-14.533-42.065-74.555.375-88.832v-14.9c0-8.836 7.164-16 16-16 8.837 0 16 7.164 16 16v14.9c18.577 6.249 32 23.818 32 44.474 0 8.836-7.163 16-16 16s-16-7.164-16-16c0-8.227-6.693-14.92-14.921-14.92h-2.159c-8.227 0-14.92 6.693-14.92 14.92 0 6.363 4.042 12.031 10.057 14.105l22.318 7.696c42.147 14.533 42.065 74.554-.375 88.831v14.9c0 8.837-7.163 16-16 16z"/></svg>