<svg width="18" height="20" viewBox="0 0 18 20" fill="none" xmlns="http://www.w3.org/2000/svg">
<path d="M10 6V0H4C3.46957 0 2.96086 0.210714 2.58579 0.585786C2.21071 0.960859 2 1.46957 2 2V11.5H8.5C9.03043 11.5 9.53914 11.7107 9.91421 12.0858C10.2893 12.4609 10.5 12.9696 10.5 13.5C10.5 14.0304 10.2893 14.5391 9.91421 14.9142C9.53914 15.2893 9.03043 15.5 8.5 15.5H2V18C2 18.5304 2.21071 19.0391 2.58579 19.4142C2.96086 19.7893 3.46957 20 4 20H16C16.5304 20 17.0391 19.7893 17.4142 19.4142C17.7893 19.0391 18 18.5304 18 18V8H12C11.4696 8 10.9609 7.78929 10.5858 7.41421C10.2107 7.03914 10 6.53043 10 6ZM5.5 9.75C5.5 9.55109 5.57902 9.36032 5.71967 9.21967C5.86032 9.07902 6.05109 9 6.25 9H13.75C13.9489 9 14.1397 9.07902 14.2803 9.21967C14.421 9.36032 14.5 9.55109 14.5 9.75C14.5 9.94891 14.421 10.1397 14.2803 10.2803C14.1397 10.421 13.9489 10.5 13.75 10.5H6.25C6.05109 10.5 5.86032 10.421 5.71967 10.2803C5.57902 10.1397 5.5 9.94891 5.5 9.75V9.75ZM5.5 17.25C5.5 17.0511 5.57902 16.8603 5.71967 16.7197C5.86032 16.579 6.05109 16.5 6.25 16.5H13.75C13.9489 16.5 14.1397 16.579 14.2803 16.7197C14.421 16.8603 14.5 17.0511 14.5 17.25C14.5 17.4489 14.421 17.6397 14.2803 17.7803C14.1397 17.921 13.9489 18 13.75 18H6.25C6.05109 18 5.86032 17.921 5.71967 17.7803C5.57902 17.6397 5.5 17.4489 5.5 17.25ZM11.5 6V0.5L17.5 6.5H12C11.8674 6.5 11.7402 6.44732 11.6464 6.35355C11.5527 6.25979 11.5 6.13261 11.5 6ZM0.75 12.75C0.551088 12.75 0.360322 12.829 0.21967 12.9697C0.0790175 13.1103 0 13.3011 0 13.5C0 13.6989 0.0790175 13.8897 0.21967 14.0303C0.360322 14.171 0.551088 14.25 0.75 14.25H8.25C8.44891 14.25 8.63968 14.171 8.78033 14.0303C8.92098 13.8897 9 13.6989 9 13.5C9 13.3011 8.92098 13.1103 8.78033 12.9697C8.63968 12.829 8.44891 12.75 8.25 12.75H0.75Z" fill="white"/>
</svg>
