<svg id="Capa_1" enable-background="new 0 0 512 512" fill="#fff" height="512" viewBox="0 0 512 512" width="512" xmlns="http://www.w3.org/2000/svg"><g><path d="m491.319 399.79-141.725-123.318-68.545 74.699 128.656 133.81c11.229 11.784 26.379 18.286 42.657 18.312h.093c16.242 0 31.376-6.457 42.62-18.184 11.265-11.75 17.079-27.177 16.37-43.439s-7.844-31.124-20.126-41.88z"/><path d="m181.082 123.509c9.119-31.97.412-66.477-23.535-90.424-26.441-26.441-65.867-34.312-100.444-20.052l-6.847 2.824 47.974 47.974c11.317 11.317 11.317 29.666 0 40.983-11.317 11.317-29.666 11.317-40.983 0l-47.737-47.736-2.491 6.04c-14.29 34.653-6.367 74.131 20.185 100.577 17.587 17.516 41.326 26.703 65.291 26.701 11.215-.001 22.486-2.014 33.188-6.127l49.282 51.257 65.896-60.041z"/><path d="m127.472 318.032 75.41 75.432 41.243-44.946-71.555-71.577z"/><path d="m105.318 338.217-71.472 65.122c-12.017 10.98-18.837 25.99-19.204 42.263-.367 16.274 5.77 31.575 17.28 43.084 11.185 11.185 25.948 17.296 41.707 17.296.459 0 .919-.005 1.379-.015 16.274-.367 31.283-7.188 42.241-19.181l65.373-71.242z"/><path d="m194.724 256.755 69.662 69.683 104.241-113.6-59.922-59.937z"/><path d="m354.458 63.185c11.089 11.089 11.089 29.069 0 40.158 0 0-25.758 25.653-26.629 26.34l63.39 63.406 24.043-24.043 35.622 52.907 61.116-61.116-51.214-37.314 16.099-16.1-68.706-68.706c-30.815-30.813-80.952-30.812-111.765 0l-17.533 17.533 21.17 21.17 14.249-14.235c11.089-11.089 29.069-11.089 40.158 0z"/></g></svg>