<svg width="15" height="14" viewBox="0 0 15 14" fill="none" xmlns="http://www.w3.org/2000/svg">
<path d="M5.02991 0.97C5.17036 1.11063 5.24925 1.30125 5.24925 1.5C5.24925 1.69875 5.17036 1.88937 5.02991 2.03L3.02991 4.03C2.88928 4.17045 2.69866 4.24934 2.49991 4.24934C2.30116 4.24934 2.11053 4.17045 1.96991 4.03L0.96991 3.03C0.837429 2.88783 0.765306 2.69978 0.768734 2.50548C0.772163 2.31118 0.850875 2.12579 0.988288 1.98838C1.1257 1.85097 1.31109 1.77225 1.50539 1.76883C1.69969 1.7654 1.88773 1.83752 2.02991 1.97L2.49991 2.44L3.96991 0.97C4.11053 0.82955 4.30116 0.75066 4.49991 0.75066C4.69866 0.75066 4.88928 0.82955 5.02991 0.97V0.97ZM5.99991 2.75C5.99991 2.55109 6.07893 2.36032 6.21958 2.21967C6.36023 2.07902 6.551 2 6.74991 2H14.2499C14.4488 2 14.6396 2.07902 14.7802 2.21967C14.9209 2.36032 14.9999 2.55109 14.9999 2.75C14.9999 2.94891 14.9209 3.13968 14.7802 3.28033C14.6396 3.42098 14.4488 3.5 14.2499 3.5H6.74991C6.551 3.5 6.36023 3.42098 6.21958 3.28033C6.07893 3.13968 5.99991 2.94891 5.99991 2.75V2.75ZM5.99991 7C5.99991 6.80109 6.07893 6.61032 6.21958 6.46967C6.36023 6.32902 6.551 6.25 6.74991 6.25H14.2499C14.4488 6.25 14.6396 6.32902 14.7802 6.46967C14.9209 6.61032 14.9999 6.80109 14.9999 7C14.9999 7.19891 14.9209 7.38968 14.7802 7.53033C14.6396 7.67098 14.4488 7.75 14.2499 7.75H6.74991C6.551 7.75 6.36023 7.67098 6.21958 7.53033C6.07893 7.38968 5.99991 7.19891 5.99991 7ZM5.02991 9.97C5.17036 10.1106 5.24925 10.3012 5.24925 10.5C5.24925 10.6988 5.17036 10.8894 5.02991 11.03L3.02991 13.03C2.88928 13.1705 2.69866 13.2493 2.49991 13.2493C2.30116 13.2493 2.11053 13.1705 1.96991 13.03L0.96991 12.03C0.896223 11.9613 0.83712 11.8785 0.796128 11.7865C0.755137 11.6945 0.733095 11.5952 0.731318 11.4945C0.729541 11.3938 0.748066 11.2938 0.785787 11.2004C0.823508 11.107 0.879652 11.0222 0.950871 10.951C1.02209 10.8797 1.10692 10.8236 1.20031 10.7859C1.2937 10.7482 1.39373 10.7296 1.49443 10.7314C1.59513 10.7332 1.69445 10.7552 1.78645 10.7962C1.87845 10.8372 1.96125 10.8963 2.02991 10.97L2.49991 11.44L3.96991 9.97C4.11053 9.82955 4.30116 9.75066 4.49991 9.75066C4.69866 9.75066 4.88928 9.82955 5.02991 9.97V9.97ZM5.99991 11.25C5.99991 11.0511 6.07893 10.8603 6.21958 10.7197C6.36023 10.579 6.551 10.5 6.74991 10.5H14.2499C14.4488 10.5 14.6396 10.579 14.7802 10.7197C14.9209 10.8603 14.9999 11.0511 14.9999 11.25C14.9999 11.4489 14.9209 11.6397 14.7802 11.7803C14.6396 11.921 14.4488 12 14.2499 12H6.74991C6.551 12 6.36023 11.921 6.21958 11.7803C6.07893 11.6397 5.99991 11.4489 5.99991 11.25Z" fill="white"/>
</svg>
