<?xml version="1.0" encoding="iso-8859-1"?>
<!-- Generator: Adobe Illustrator 17.1.0, SVG Export Plug-In . SVG Version: 6.00 Build 0)  -->
<!DOCTYPE svg PUBLIC "-//W3C//DTD SVG 1.1//EN" "http://www.w3.org/Graphics/SVG/1.1/DTD/svg11.dtd">
<svg version="1.1" id="Capa_1" fill="white" xmlns="http://www.w3.org/2000/svg" xmlns:xlink="http://www.w3.org/1999/xlink" x="0px" y="0px"
	 viewBox="0 0 169.732 169.732" style="enable-background:new 0 0 169.732 169.732;" xml:space="preserve">
<path d="M160.129,89.592c0,21.387-8.328,41.493-23.449,56.615c-15.122,15.122-35.227,23.45-56.612,23.45c-0.001,0-0.002,0-0.003,0
	c-0.64,0-1.284-0.008-1.927-0.023c-20.55-0.483-39.946-8.829-54.616-23.498S0.507,112.071,0.023,91.521
	c-0.512-21.765,7.572-42.316,22.762-57.868C37.98,18.096,58.323,9.529,80.065,9.529c2.762,0,5,2.239,5,5v64.758
	c0,2.926,2.38,5.306,5.306,5.306h64.759C157.891,84.592,160.129,86.831,160.129,89.592z M169.732,70.805
	c0-39.001-31.73-70.73-70.731-70.73c-2.762,0-5,2.239-5,5v65.73c0,2.761,2.238,5,5,5h65.731
	C167.494,75.805,169.732,73.567,169.732,70.805z M104,10.279c29.507,2.417,53.11,26.021,55.527,55.526H104V10.279z"/>
<g>
</g>
<g>
</g>
<g>
</g>
<g>
</g>
<g>
</g>
<g>
</g>
<g>
</g>
<g>
</g>
<g>
</g>
<g>
</g>
<g>
</g>
<g>
</g>
<g>
</g>
<g>
</g>
<g>
</g>
</svg>
