<svg id="Capa_1" fill="white" enable-background="new 0 0 512 512" height="512" viewBox="0 0 512 512" width="512" xmlns="http://www.w3.org/2000/svg"><g><path d="m111.256 331.994 52.494-17.499 16.091-56.316-33.317-58.304-134.316-21.931c-7.917 24.676-12.208 50.975-12.208 78.28 0 59.016 19.982 113.359 53.533 156.658l49.986-74.979c1.851-2.774 4.573-4.854 7.737-5.909z"/><path d="m358.206 394.943c-2.151 3.011-5.339 5.121-8.952 5.924l-78.254 17.39v93.519c94.724-5.475 175.628-62.441 215.146-143.337l-84.784-33.913z"/><path d="m271 256.224c-8.284 0-15-6.716-15-15v-241c-103.238 0-192.189 61.117-232.681 149.137l135.098 22.059c4.465.729 8.362 3.434 10.607 7.362l40 70c2.005 3.509 2.509 7.677 1.399 11.563l-20 70c-1.36 4.761-4.982 8.544-9.68 10.109l-55.118 18.372-51.615 77.424c43.119 43.587 101.779 71.757 166.99 75.526v-105.551c0-7.03 4.883-13.117 11.746-14.643l84.389-18.753 46.659-65.323c4.018-5.625 11.359-7.776 17.777-5.209l96.127 38.452c9.254-26.464 14.302-54.903 14.302-84.525z"/><path d="m479.816 226.225h30.216c-6.472-55.195-30.875-108.688-73.222-151.035-42.29-42.29-95.694-66.686-150.81-73.198v30.222c48.915 6.494 94.117 28.709 129.597 64.189 35.534 35.534 57.763 80.821 64.219 129.822z"/><path d="m286 62.519v30.427c32.838 6.005 63.061 21.774 87.171 45.883 24.165 24.165 39.951 54.47 45.925 87.395h30.421c-6.252-40.966-25.28-78.755-55.133-108.608-29.799-29.798-67.504-48.81-108.384-55.097z"/><path d="m330.744 181.256c12.739 12.739 21.829 28.151 26.762 44.969h30.988c-5.57-24.877-18.071-47.717-36.537-66.182-18.409-18.409-41.168-30.889-65.957-36.484v31c16.731 4.948 32.062 14.015 44.744 26.697z"/><path d="m286 226.224h39.652c-3.761-8.757-9.178-16.813-16.121-23.755-6.883-6.883-14.861-12.264-23.531-16.021z"/></g></svg>